<mxfile host="65bd71144e">
    <diagram id="CuWUCVB4PWwjptIz1WBI" name="Page-1">
        <mxGraphModel dx="1102" dy="1595" grid="1" gridSize="10" guides="1" tooltips="1" connect="1" arrows="1" fold="1" page="1" pageScale="1" pageWidth="850" pageHeight="1100" math="0" shadow="0">
            <root>
                <mxCell id="0"/>
                <mxCell id="1" parent="0"/>
                <mxCell id="2" value="course_unit" style="swimlane;fontStyle=1;childLayout=stackLayout;horizontal=1;startSize=30;horizontalStack=0;resizeParent=1;resizeParentMax=0;resizeLast=0;collapsible=1;marginBottom=0;" vertex="1" parent="1">
                    <mxGeometry x="100" y="200" width="170" height="360" as="geometry"/>
                </mxCell>
                <mxCell id="3" value="PK id: int(11)" style="text;strokeColor=none;fillColor=none;align=left;verticalAlign=middle;spacingLeft=4;spacingRight=4;overflow=hidden;points=[[0,0.5],[1,0.5]];portConstraint=eastwest;rotatable=0;fontStyle=1" vertex="1" parent="2">
                    <mxGeometry y="30" width="170" height="30" as="geometry"/>
                </mxCell>
                <mxCell id="5" value="FK course_id: int(11)" style="text;strokeColor=none;fillColor=none;align=left;verticalAlign=middle;spacingLeft=4;spacingRight=4;overflow=hidden;points=[[0,0.5],[1,0.5]];portConstraint=eastwest;rotatable=0;fontStyle=3" vertex="1" parent="2">
                    <mxGeometry y="60" width="170" height="30" as="geometry"/>
                </mxCell>
                <mxCell id="4" value="course_unit_id: int(11)" style="text;strokeColor=none;fillColor=none;align=left;verticalAlign=middle;spacingLeft=4;spacingRight=4;overflow=hidden;points=[[0,0.5],[1,0.5]];portConstraint=eastwest;rotatable=0;fontStyle=2" vertex="1" parent="2">
                    <mxGeometry y="90" width="170" height="30" as="geometry"/>
                </mxCell>
                <mxCell id="8" value="name: varchar(200)" style="text;strokeColor=none;fillColor=none;align=left;verticalAlign=middle;spacingLeft=4;spacingRight=4;overflow=hidden;points=[[0,0.5],[1,0.5]];portConstraint=eastwest;rotatable=0;" vertex="1" parent="2">
                    <mxGeometry y="120" width="170" height="30" as="geometry"/>
                </mxCell>
                <mxCell id="9" value="acronym: varchar(16)" style="text;strokeColor=none;fillColor=none;align=left;verticalAlign=middle;spacingLeft=4;spacingRight=4;overflow=hidden;points=[[0,0.5],[1,0.5]];portConstraint=eastwest;rotatable=0;" vertex="1" parent="2">
                    <mxGeometry y="150" width="170" height="30" as="geometry"/>
                </mxCell>
                <mxCell id="10" value="uri: varchar(2000)" style="text;strokeColor=none;fillColor=none;align=left;verticalAlign=middle;spacingLeft=4;spacingRight=4;overflow=hidden;points=[[0,0.5],[1,0.5]];portConstraint=eastwest;rotatable=0;" vertex="1" parent="2">
                    <mxGeometry y="180" width="170" height="30" as="geometry"/>
                </mxCell>
                <mxCell id="11" value="course_year: tinyint(4)" style="text;strokeColor=none;fillColor=none;align=left;verticalAlign=middle;spacingLeft=4;spacingRight=4;overflow=hidden;points=[[0,0.5],[1,0.5]];portConstraint=eastwest;rotatable=0;" vertex="1" parent="2">
                    <mxGeometry y="210" width="170" height="30" as="geometry"/>
                </mxCell>
                <mxCell id="12" value="semester: tinyint(4)" style="text;strokeColor=none;fillColor=none;align=left;verticalAlign=middle;spacingLeft=4;spacingRight=4;overflow=hidden;points=[[0,0.5],[1,0.5]];portConstraint=eastwest;rotatable=0;fontStyle=2" vertex="1" parent="2">
                    <mxGeometry y="240" width="170" height="30" as="geometry"/>
                </mxCell>
                <mxCell id="13" value="year: smallint(6)" style="text;strokeColor=none;fillColor=none;align=left;verticalAlign=middle;spacingLeft=4;spacingRight=4;overflow=hidden;points=[[0,0.5],[1,0.5]];portConstraint=eastwest;rotatable=0;fontStyle=2" vertex="1" parent="2">
                    <mxGeometry y="270" width="170" height="30" as="geometry"/>
                </mxCell>
                <mxCell id="14" value="schedule_url: varchar(2000)" style="text;strokeColor=none;fillColor=none;align=left;verticalAlign=middle;spacingLeft=4;spacingRight=4;overflow=hidden;points=[[0,0.5],[1,0.5]];portConstraint=eastwest;rotatable=0;" vertex="1" parent="2">
                    <mxGeometry y="300" width="170" height="30" as="geometry"/>
                </mxCell>
                <mxCell id="15" value="last_update: datetime" style="text;strokeColor=none;fillColor=none;align=left;verticalAlign=middle;spacingLeft=4;spacingRight=4;overflow=hidden;points=[[0,0.5],[1,0.5]];portConstraint=eastwest;rotatable=0;" vertex="1" parent="2">
                    <mxGeometry y="330" width="170" height="30" as="geometry"/>
                </mxCell>
                <mxCell id="7" value="The curricular units of a course (e.g LTW, LBAW)" style="text;html=1;strokeColor=none;fillColor=none;align=center;verticalAlign=middle;whiteSpace=wrap;rounded=0;" vertex="1" parent="1">
                    <mxGeometry x="85" y="160" width="170" height="30" as="geometry"/>
                </mxCell>
                <mxCell id="16" value="&lt;h1&gt;Instructions&lt;/h1&gt;&lt;p&gt;Indexed columns are written in &lt;i&gt;italic&lt;/i&gt;. Primary and Foreign keys are highlighted with bold.&amp;nbsp;&lt;/p&gt;" style="text;html=1;strokeColor=none;fillColor=none;spacing=5;spacingTop=-20;whiteSpace=wrap;overflow=hidden;rounded=0;" vertex="1" parent="1">
                    <mxGeometry x="10" width="190" height="120" as="geometry"/>
                </mxCell>
                <mxCell id="29" style="edgeStyle=none;html=1;endArrow=none;endFill=0;" edge="1" parent="1" source="17" target="2">
                    <mxGeometry relative="1" as="geometry"/>
                </mxCell>
                <mxCell id="30" value="&lt;font style=&quot;font-size: 14px&quot;&gt;1&lt;/font&gt;" style="edgeLabel;html=1;align=center;verticalAlign=middle;resizable=0;points=[];" vertex="1" connectable="0" parent="29">
                    <mxGeometry x="0.8609" y="3" relative="1" as="geometry">
                        <mxPoint y="7" as="offset"/>
                    </mxGeometry>
                </mxCell>
                <mxCell id="31" value="&lt;font style=&quot;font-size: 14px&quot;&gt;*&lt;/font&gt;" style="edgeLabel;html=1;align=center;verticalAlign=middle;resizable=0;points=[];" vertex="1" connectable="0" parent="29">
                    <mxGeometry x="-0.7304" relative="1" as="geometry">
                        <mxPoint x="11" y="10" as="offset"/>
                    </mxGeometry>
                </mxCell>
                <mxCell id="17" value="schedule" style="swimlane;fontStyle=1;childLayout=stackLayout;horizontal=1;startSize=30;horizontalStack=0;resizeParent=1;resizeParentMax=0;resizeLast=0;collapsible=1;marginBottom=0;" vertex="1" parent="1">
                    <mxGeometry x="500" y="200" width="210" height="360" as="geometry"/>
                </mxCell>
                <mxCell id="18" value="PK id: int(11)" style="text;strokeColor=none;fillColor=none;align=left;verticalAlign=middle;spacingLeft=4;spacingRight=4;overflow=hidden;points=[[0,0.5],[1,0.5]];portConstraint=eastwest;rotatable=0;fontStyle=1" vertex="1" parent="17">
                    <mxGeometry y="30" width="210" height="30" as="geometry"/>
                </mxCell>
                <mxCell id="25" value="FK course_unit_id: int(11)" style="text;strokeColor=none;fillColor=none;align=left;verticalAlign=middle;spacingLeft=4;spacingRight=4;overflow=hidden;points=[[0,0.5],[1,0.5]];portConstraint=eastwest;rotatable=0;fontStyle=3" vertex="1" parent="17">
                    <mxGeometry y="60" width="210" height="30" as="geometry"/>
                </mxCell>
                <mxCell id="19" value="day: tinyint(3)" style="text;strokeColor=none;fillColor=none;align=left;verticalAlign=middle;spacingLeft=4;spacingRight=4;overflow=hidden;points=[[0,0.5],[1,0.5]];portConstraint=eastwest;rotatable=0;" vertex="1" parent="17">
                    <mxGeometry y="90" width="210" height="30" as="geometry"/>
                </mxCell>
                <mxCell id="20" value="duration: decimal(3,1)" style="text;strokeColor=none;fillColor=none;align=left;verticalAlign=middle;spacingLeft=4;spacingRight=4;overflow=hidden;points=[[0,0.5],[1,0.5]];portConstraint=eastwest;rotatable=0;" vertex="1" parent="17">
                    <mxGeometry y="120" width="210" height="30" as="geometry"/>
                </mxCell>
                <mxCell id="21" value="start_time: decimal(3,1)" style="text;strokeColor=none;fillColor=none;align=left;verticalAlign=middle;spacingLeft=4;spacingRight=4;overflow=hidden;points=[[0,0.5],[1,0.5]];portConstraint=eastwest;rotatable=0;" vertex="1" parent="17">
                    <mxGeometry y="150" width="210" height="30" as="geometry"/>
                </mxCell>
                <mxCell id="22" value="location: varchar(16)" style="text;strokeColor=none;fillColor=none;align=left;verticalAlign=middle;spacingLeft=4;spacingRight=4;overflow=hidden;points=[[0,0.5],[1,0.5]];portConstraint=eastwest;rotatable=0;" vertex="1" parent="17">
                    <mxGeometry y="180" width="210" height="30" as="geometry"/>
                </mxCell>
                <mxCell id="23" value="lesson_type: varchar(3)" style="text;strokeColor=none;fillColor=none;align=left;verticalAlign=middle;spacingLeft=4;spacingRight=4;overflow=hidden;points=[[0,0.5],[1,0.5]];portConstraint=eastwest;rotatable=0;" vertex="1" parent="17">
                    <mxGeometry y="210" width="210" height="30" as="geometry"/>
                </mxCell>
                <mxCell id="24" value="teacher_acronym: varchar(16)" style="text;strokeColor=none;fillColor=none;align=left;verticalAlign=middle;spacingLeft=4;spacingRight=4;overflow=hidden;points=[[0,0.5],[1,0.5]];portConstraint=eastwest;rotatable=0;" vertex="1" parent="17">
                    <mxGeometry y="240" width="210" height="30" as="geometry"/>
                </mxCell>
                <mxCell id="26" value="last_update: datetime" style="text;strokeColor=none;fillColor=none;align=left;verticalAlign=middle;spacingLeft=4;spacingRight=4;overflow=hidden;points=[[0,0.5],[1,0.5]];portConstraint=eastwest;rotatable=0;" vertex="1" parent="17">
                    <mxGeometry y="270" width="210" height="30" as="geometry"/>
                </mxCell>
                <mxCell id="27" value="class_name: varchar(16)" style="text;strokeColor=none;fillColor=none;align=left;verticalAlign=middle;spacingLeft=4;spacingRight=4;overflow=hidden;points=[[0,0.5],[1,0.5]];portConstraint=eastwest;rotatable=0;" vertex="1" parent="17">
                    <mxGeometry y="300" width="210" height="30" as="geometry"/>
                </mxCell>
                <mxCell id="28" value="composed_class_name: varchar(16)" style="text;strokeColor=none;fillColor=none;align=left;verticalAlign=middle;spacingLeft=4;spacingRight=4;overflow=hidden;points=[[0,0.5],[1,0.5]];portConstraint=eastwest;rotatable=0;" vertex="1" parent="17">
                    <mxGeometry y="330" width="210" height="30" as="geometry"/>
                </mxCell>
            </root>
        </mxGraphModel>
    </diagram>
</mxfile>